# xmcd
#
# Track frame offsets: 
#        182
#        12272
#        31772
#        46160
#        54327
#        76935
#        89197
#        104642
#        120122
#        142172
#        160077
#        174797
#        195050
#
# Disc length: 2704 seconds
#
# Revision: 4
# Processed by: cddbd v1.4PL0 Copyright (c) Steve Scherf et al.
# Submitted via: ExactAudioCopy v0.90b4
#
DISCID=940a8e0d
DTITLE=Big Bill Broonzy - Black, Brown and White
DYEAR=1955
DGENRE=Blues
TTITLE0=Brack, Brown And White
TTITLE1=Make My Getaway
TTITLE2=Keep Your Hands Off Her
TTITLE3=Who's Sorry Now
TTITLE4=Lowland Blues
TTITLE5=Going To Chicago
TTITLE6=Big Bill Blues
TTITLE7=Nobody's Business
TTITLE8=Texas Tornado
TTITLE9=Alberta
TTITLE10=Water Coast
TTITLE11=Careless Love
TTITLE12=Pretty Little Baby
EXTD=
EXTT0=
EXTT1=
EXTT2=
EXTT3=
EXTT4=
EXTT5=
EXTT6=
EXTT7=
EXTT8=
EXTT9=
EXTT10=
EXTT11=
EXTT12=
PLAYORDER=
